<?xml version="1.0" encoding="UTF-8"?>
<svg xmlns="http://www.w3.org/2000/svg" viewBox="0 0 133.14 23.2">
  <defs>
    <style>
      .cls-1 {
        fill: #fff;
      }

      .cls-2 {
        fill: #1d1d1b;
      }
    </style>
  </defs>
  <g id="Layer_2" data-name="Layer 2">
    <g>
      <rect class="cls-2" y="14.14" width="133.14" height="9.06"/>
      <g>
        <path class="cls-1" d="M.91,14.57H5.26v.88H1.95v2.69h3.06v.86H1.95v3.66H.91V14.57Z"/>
        <path class="cls-1" d="M6.76,14.68c.53-.11,1.28-.17,2-.17,1.12,0,1.83,.2,2.34,.66,.41,.36,.64,.91,.64,1.54,0,1.07-.67,1.77-1.52,2.06v.04c.62,.22,1,.79,1.19,1.63,.26,1.13,.46,1.91,.62,2.22h-1.08c-.13-.23-.31-.92-.54-1.93-.24-1.12-.67-1.54-1.62-1.57h-.98v3.5h-1.04v-7.98Zm1.04,3.68h1.07c1.12,0,1.82-.61,1.82-1.54,0-1.04-.76-1.5-1.86-1.51-.5,0-.86,.05-1.03,.1v2.95Z"/>
        <path class="cls-1" d="M17.4,18.87h-3.14v2.91h3.5v.88h-4.55V14.57h4.37v.88h-3.32v2.55h3.14v.86Z"/>
        <path class="cls-1" d="M19.12,14.68c.64-.1,1.39-.17,2.22-.17,1.5,0,2.57,.35,3.27,1.01,.72,.66,1.14,1.6,1.14,2.9s-.41,2.4-1.16,3.14c-.76,.76-2,1.16-3.57,1.16-.74,0-1.37-.04-1.9-.1v-7.95Zm1.04,7.15c.26,.05,.65,.06,1.06,.06,2.23,0,3.44-1.25,3.44-3.43,.01-1.91-1.07-3.12-3.27-3.12-.54,0-.95,.05-1.22,.11v6.38Z"/>
        <path class="cls-1" d="M31.29,18.87h-3.14v2.91h3.5v.88h-4.55V14.57h4.37v.88h-3.32v2.55h3.14v.86Z"/>
        <path class="cls-1" d="M33.01,14.68c.53-.11,1.28-.17,2-.17,1.12,0,1.83,.2,2.34,.66,.41,.36,.64,.91,.64,1.54,0,1.07-.67,1.77-1.52,2.06v.04c.62,.22,1,.79,1.19,1.63,.26,1.13,.46,1.91,.62,2.22h-1.08c-.13-.23-.31-.92-.54-1.93-.24-1.12-.67-1.54-1.62-1.57h-.98v3.5h-1.04v-7.98Zm1.04,3.68h1.07c1.12,0,1.82-.61,1.82-1.54,0-1.04-.76-1.5-1.86-1.51-.5,0-.86,.05-1.03,.1v2.95Z"/>
        <path class="cls-1" d="M40.51,14.57v8.08h-1.04V14.57h1.04Z"/>
        <path class="cls-1" d="M42.34,14.57h1.04v3.9h.04c.22-.31,.43-.6,.64-.86l2.47-3.03h1.3l-2.93,3.43,3.15,4.65h-1.24l-2.66-3.97-.77,.89v3.08h-1.04V14.57Z"/>
        <path class="cls-1" d="M51.24,21.39c.47,.29,1.15,.53,1.87,.53,1.07,0,1.69-.56,1.69-1.38,0-.76-.43-1.19-1.52-1.61-1.32-.47-2.14-1.15-2.14-2.29,0-1.26,1.04-2.19,2.61-2.19,.83,0,1.43,.19,1.79,.4l-.29,.85c-.26-.14-.8-.38-1.54-.38-1.1,0-1.52,.66-1.52,1.21,0,.76,.49,1.13,1.61,1.56,1.37,.53,2.06,1.19,2.06,2.37,0,1.25-.92,2.33-2.83,2.33-.78,0-1.63-.23-2.06-.52l.26-.88Z"/>
        <path class="cls-1" d="M62.95,22.39c-.38,.19-1.15,.38-2.13,.38-2.28,0-3.99-1.44-3.99-4.09s1.72-4.25,4.22-4.25c1.01,0,1.64,.22,1.92,.36l-.25,.85c-.4-.19-.96-.34-1.63-.34-1.9,0-3.15,1.21-3.15,3.33,0,1.98,1.14,3.25,3.11,3.25,.64,0,1.28-.13,1.7-.34l.22,.83Z"/>
        <path class="cls-1" d="M65.3,14.57v3.38h3.91v-3.38h1.06v8.08h-1.06v-3.79h-3.91v3.79h-1.04V14.57h1.04Z"/>
        <path class="cls-1" d="M73.13,14.57v4.79c0,1.81,.8,2.58,1.88,2.58,1.2,0,1.97-.79,1.97-2.58v-4.79h1.06v4.71c0,2.48-1.31,3.5-3.06,3.5-1.65,0-2.9-.95-2.9-3.45v-4.76h1.06Z"/>
        <path class="cls-1" d="M79.85,14.57h1.04v7.21h3.45v.88h-4.5V14.57Z"/>
        <path class="cls-1" d="M85.99,15.46h-2.46v-.89h5.98v.89h-2.47v7.2h-1.06v-7.2Z"/>
        <path class="cls-1" d="M89.87,22.05l4.49-6.56v-.04h-4.1v-.88h5.46v.64l-4.46,6.54v.04h4.52v.88h-5.9v-.61Z"/>
        <path class="cls-1" d="M103.78,18.87h-3.14v2.91h3.5v.88h-4.55V14.57h4.37v.88h-3.32v2.55h3.14v.86Z"/>
        <path class="cls-1" d="M106.93,22.66l-2.05-8.08h1.1l.96,4.09c.24,1.01,.46,2.01,.6,2.79h.02c.13-.8,.38-1.76,.66-2.81l1.08-4.08h1.09l.98,4.1c.23,.96,.44,1.92,.56,2.77h.02c.17-.89,.4-1.79,.65-2.79l1.07-4.08h1.07l-2.29,8.08h-1.09l-1.02-4.21c-.25-1.03-.42-1.82-.53-2.64h-.02c-.14,.8-.32,1.6-.62,2.64l-1.15,4.21h-1.09Z"/>
        <path class="cls-1" d="M119.95,18.87h-3.14v2.91h3.5v.88h-4.55V14.57h4.37v.88h-3.32v2.55h3.14v.86Z"/>
        <path class="cls-1" d="M121.67,14.68c.53-.11,1.28-.17,2-.17,1.12,0,1.83,.2,2.34,.66,.41,.36,.64,.91,.64,1.54,0,1.07-.67,1.77-1.52,2.06v.04c.62,.22,1,.79,1.19,1.63,.26,1.13,.46,1.91,.62,2.22h-1.08c-.13-.23-.31-.92-.54-1.93-.24-1.12-.67-1.54-1.62-1.57h-.98v3.5h-1.04v-7.98Zm1.04,3.68h1.07c1.12,0,1.82-.61,1.82-1.54,0-1.04-.76-1.5-1.86-1.51-.5,0-.86,.05-1.03,.1v2.95Z"/>
        <path class="cls-1" d="M127.98,21.39c.47,.29,1.15,.53,1.87,.53,1.07,0,1.69-.56,1.69-1.38,0-.76-.43-1.19-1.52-1.61-1.32-.47-2.14-1.15-2.14-2.29,0-1.26,1.04-2.19,2.61-2.19,.83,0,1.43,.19,1.79,.4l-.29,.85c-.26-.14-.8-.38-1.54-.38-1.1,0-1.52,.66-1.52,1.21,0,.76,.49,1.13,1.61,1.56,1.37,.53,2.06,1.19,2.06,2.37,0,1.25-.92,2.33-2.83,2.33-.78,0-1.63-.23-2.06-.52l.26-.88Z"/>
      </g>
    </g>
  </g>
  <g id="Layer_1" data-name="Layer 1">
    <g>
      <path class="cls-2" d="M0,.36C.88,.23,2.03,.11,3.49,.11c1.79,0,3.11,.38,3.94,1.07,.77,.61,1.23,1.55,1.23,2.7s-.38,2.08-1.08,2.75c-.96,.94-2.52,1.42-4.3,1.42-.54,0-1.04-.02-1.46-.12v5.16H0V.36ZM1.82,6.58c.4,.1,.9,.13,1.5,.13,2.19,0,3.53-.98,3.53-2.75S5.53,1.43,3.53,1.43c-.79,0-1.4,.06-1.71,.13V6.58Z"/>
      <path class="cls-2" d="M27.55,6.52c0,4.44-2.94,6.79-6.53,6.79s-6.32-2.64-6.32-6.54c0-4.09,2.77-6.77,6.53-6.77s6.32,2.7,6.32,6.52Zm-10.91,.21c0,2.75,1.63,5.22,4.48,5.22s4.51-2.43,4.51-5.36c0-2.56-1.46-5.24-4.48-5.24s-4.51,2.54-4.51,5.37Z"/>
      <path class="cls-2" d="M34.34,.38c.92-.17,2.23-.27,3.48-.27,1.94,0,3.19,.33,4.07,1.05,.71,.57,1.11,1.45,1.11,2.45,0,1.7-1.17,2.83-2.65,3.29v.06c1.08,.34,1.73,1.26,2.06,2.6,.46,1.8,.79,3.04,1.09,3.54h-1.88c-.23-.36-.54-1.47-.94-3.08-.42-1.78-1.17-2.45-2.82-2.51h-1.71v5.59h-1.81V.38Zm1.81,5.87h1.86c1.94,0,3.17-.98,3.17-2.45,0-1.66-1.31-2.39-3.23-2.41-.88,0-1.5,.08-1.79,.15V6.25Z"/>
      <path class="cls-2" d="M51.8,1.63h-4.28V.21h10.41V1.63h-4.3V13.1h-1.84V1.63Z"/>
      <path class="cls-2" d="M63.93,.21h7.57V1.61h-5.76V5.89h5.32v1.38h-5.32v5.83h-1.81V.21Z"/>
      <path class="cls-2" d="M90.53,6.52c0,4.44-2.94,6.79-6.53,6.79s-6.32-2.64-6.32-6.54c0-4.09,2.77-6.77,6.53-6.77s6.32,2.7,6.32,6.52Zm-10.91,.21c0,2.75,1.63,5.22,4.48,5.22s4.51-2.43,4.51-5.36c0-2.56-1.46-5.24-4.48-5.24s-4.51,2.54-4.51,5.37Z"/>
      <path class="cls-2" d="M97.32,.21h1.81V11.71h6.01v1.4h-7.82V.21Z"/>
      <path class="cls-2" d="M113.41,.21V13.1h-1.81V.21h1.81Z"/>
      <path class="cls-2" d="M133.02,6.52c0,4.44-2.94,6.79-6.53,6.79s-6.32-2.64-6.32-6.54c0-4.09,2.77-6.77,6.53-6.77s6.32,2.7,6.32,6.52Zm-10.91,.21c0,2.75,1.63,5.22,4.48,5.22s4.51-2.43,4.51-5.36c0-2.56-1.46-5.24-4.48-5.24s-4.51,2.54-4.51,5.37Z"/>
    </g>
  </g>
</svg>